<?xml version="1.0" encoding="utf-8"?>
<!-- Generator: Adobe Illustrator 21.0.0, SVG Export Plug-In . SVG Version: 6.00 Build 0)  -->
<svg version="1.1" id="Layer_1" xmlns="http://www.w3.org/2000/svg" xmlns:xlink="http://www.w3.org/1999/xlink" x="0px" y="0px"
	 viewBox="0 0 166 130" style="enable-background:new 0 0 166 130;" xml:space="preserve">
<style type="text/css">
	.st0{fill:url(#SVGID_1_);}
	.st1{fill:url(#SVGID_2_);}
</style>
<linearGradient id="SVGID_1_" gradientUnits="userSpaceOnUse" x1="-833.8354" y1="360.623" x2="-833.6158" y2="360.4035" gradientTransform="matrix(721.094 0 0 -482.937 601279.375 174164.2031)">
	<stop  offset="0" style="stop-color:#CBCED0"/>
	<stop  offset="1" style="stop-color:#84838B"/>
</linearGradient>
<path class="st0" d="M84.9,112C41.1,112,5.7,88.3,5.7,59c0-29.3,35.4-53,79.1-53C128.6,6,164,29.7,164,59
	C164,88.3,128.6,112,84.9,112z M97,26.7c-33.2,0-60.2,16.2-60.2,36.2S63.7,99.2,97,99.2c33.2,0,57.7-11.1,57.7-36.2
	C154.7,37.8,130.2,26.7,97,26.7z"/>
<linearGradient id="SVGID_2_" gradientUnits="userSpaceOnUse" x1="-833.4863" y1="360.6369" x2="-833.2668" y2="360.4174" gradientTransform="matrix(398 0 0 -406.124 331793 146507.8281)">
	<stop  offset="0" style="stop-color:#276DC3"/>
	<stop  offset="1" style="stop-color:#165CAA"/>
</linearGradient>
<path class="st1" d="M126.2,88.1c0,0,4.8,1.4,7.6,2.9c1,0.5,2.6,1.5,3.8,2.7c1.2,1.3,1.8,2.5,1.8,2.5l18.9,31.8l-30.5,0l-14.3-26.8
	c0,0-2.9-5-4.7-6.5c-1.5-1.2-2.1-1.6-3.6-1.6c-1,0-7.2,0-7.2,0l0,34.9l-27,0V38.9h54.2c0,0,24.7,0.4,24.7,23.9
	S126.2,88.1,126.2,88.1z M114.5,58.2l-16.3,0l0,15.2l16.4,0c0,0,7.6,0,7.6-7.7C122.1,57.8,114.5,58.2,114.5,58.2z"/>
</svg>
